# xmcd
#
# Track frame offsets: 
#        150
#        13076
#        27013
#        39238
#        49430
#        64650
#        72078
#        87621
#        108828
#        123235
#        140705
#
# Disc length: 2141 seconds
#
# Revision: 1
# Processed by: cddbd v1.5.2PL0 Copyright (c) Steve Scherf et al.
# Submitted via: ExactAudioCopy v1.0b1
#
DISCID=94085b0b
DTITLE=Eliza Lynn - Frisky or Fair
DYEAR=2005
DGENRE=Blues
TTITLE0=Not 10 Miles
TTITLE1=Honeysuckle
TTITLE2=Tunnel
TTITLE3=Frisky Or Fair
TTITLE4=Used To Mean
TTITLE5=You Go 'round Corners
TTITLE6=Sing A New Song
TTITLE7=China
TTITLE8=BelieveIn Me
TTITLE9=Wild Turkey
TTITLE10=Slow Down
EXTD=YEAR: 2005
EXTT0=
EXTT1=
EXTT2=
EXTT3=
EXTT4=
EXTT5=
EXTT6=
EXTT7=
EXTT8=
EXTT9=
EXTT10=
PLAYORDER=
